<svg xmlns="http://www.w3.org/2000/svg" xmlns:xlink="http://www.w3.org/1999/xlink" width="500" zoomAndPan="magnify" viewBox="0 0 375 374.999991" height="500" preserveAspectRatio="xMidYMid meet" version="1.0"><defs><filter x="0%" y="0%" width="100%" height="100%" id="654cf9ea20"><feColorMatrix values="0 0 0 0 1 0 0 0 0 1 0 0 0 0 1 0 0 0 1 0" color-interpolation-filters="sRGB"/></filter><g/><mask id="ef247ccbfb"><g filter="url(#654cf9ea20)"><rect x="-37.5" width="450" fill="#000000" y="-37.499999" height="449.999989" fill-opacity="0.4"/></g></mask><clipPath id="c870910bc1"><rect x="0" width="348" y="0" height="375"/></clipPath><clipPath id="9891ea5204"><path d="M 11.375 34.3125 L 180 34.3125 L 180 176.8125 L 11.375 176.8125 Z M 11.375 34.3125 " clip-rule="nonzero"/></clipPath><clipPath id="7cdf402bf3"><path d="M 11.375 90 L 180 90 L 180 157 L 11.375 157 Z M 11.375 90 " clip-rule="nonzero"/></clipPath><clipPath id="8dee6c6b73"><path d="M 217 160.933594 L 350.410156 160.933594 L 350.410156 346.183594 L 217 346.183594 Z M 217 160.933594 " clip-rule="nonzero"/></clipPath><clipPath id="dfe8998e66"><path d="M 317 160.933594 L 351 160.933594 L 351 194 L 317 194 Z M 317 160.933594 " clip-rule="nonzero"/></clipPath><clipPath id="6ef664bb2f"><path d="M 199.203125 241.101562 L 368.425781 241.101562 L 368.425781 320.789062 L 199.203125 320.789062 Z M 199.203125 241.101562 " clip-rule="nonzero"/></clipPath><clipPath id="507df0f197"><path d="M 103 170 L 198 170 L 198 293 L 103 293 Z M 103 170 " clip-rule="nonzero"/></clipPath><clipPath id="e0033ddbc2"><path d="M 107.441406 295.707031 L 100.785156 172.136719 L 192.152344 167.214844 L 198.808594 290.785156 Z M 107.441406 295.707031 " clip-rule="nonzero"/></clipPath><clipPath id="567e6add05"><path d="M 107.441406 295.707031 L 100.785156 172.136719 L 192.152344 167.214844 L 198.808594 290.785156 Z M 107.441406 295.707031 " clip-rule="nonzero"/></clipPath><clipPath id="5c32e42b4b"><path d="M 43.230469 173 L 181.980469 173 L 181.980469 360 L 43.230469 360 Z M 43.230469 173 " clip-rule="nonzero"/></clipPath></defs><rect x="-37.5" width="450" fill="#ffffff" y="-37.499999" height="449.999989" fill-opacity="1"/><rect x="-37.5" width="450" fill="#fff3c2" y="-37.499999" height="449.999989" fill-opacity="1"/><g mask="url(#ef247ccbfb)"><g transform="matrix(1, 0, 0, 1, 8, 0)"><g clip-path="url(#c870910bc1)"><g fill="#ff9999" fill-opacity="1"><g transform="translate(0.739489, 332.249978)"><g><path d="M 93.75 3.84375 C 71.039062 3.84375 52.179688 -0.457031 37.171875 -9.0625 C 22.160156 -17.664062 11.234375 -29.234375 4.390625 -43.765625 L 34.234375 -80.015625 L 38.8125 -80.015625 C 43.695312 -68.296875 50.625 -59.046875 59.59375 -52.265625 C 68.570312 -45.492188 78.984375 -42.109375 90.828125 -42.109375 C 104.128906 -42.109375 114.015625 -45.984375 120.484375 -53.734375 C 126.953125 -61.492188 130.1875 -74.101562 130.1875 -91.5625 L 130.1875 -267.71875 L 182.9375 -267.71875 L 182.9375 -90.640625 C 182.9375 -58.285156 175.578125 -34.445312 160.859375 -19.125 C 146.148438 -3.8125 123.78125 3.84375 93.75 3.84375 Z M 93.75 3.84375 "/></g></g></g><g fill="#ff9999" fill-opacity="1"><g transform="translate(141.811487, 332.249978)"><g><path d="M 204.53125 -267.71875 L 204.53125 -223.390625 L 87.71875 -223.390625 L 87.71875 -152.53125 L 193.734375 -152.53125 L 193.734375 -108.765625 L 87.71875 -108.765625 L 87.71875 0 L 34.796875 0 L 34.796875 -267.71875 Z M 204.53125 -267.71875 "/></g></g></g></g></g></g><g clip-path="url(#9891ea5204)"><path stroke-linecap="round" transform="matrix(0.621547, 0, 0, 0.623506, 11.747501, 34.388622)" fill="none" stroke-linejoin="round" d="M 5.371174 5.372298 L 265.018215 5.372298 L 265.018215 222.961226 L 5.371174 222.961226 Z M 5.371174 5.372298 " stroke="#000000" stroke-width="10.742" stroke-opacity="1" stroke-miterlimit="10"/></g><g clip-path="url(#7cdf402bf3)"><path stroke-linecap="round" transform="matrix(0.621547, 0, 0, 0.623506, 11.747501, 34.388622)" fill="none" stroke-linejoin="round" d="M 5.371174 190.0513 L 63.429444 136.109845 L 114.172296 190.0513 L 200.109597 95.882426 L 265.018215 159.879169 " stroke="#000000" stroke-width="10.742" stroke-opacity="1" stroke-miterlimit="10"/></g><path stroke-linecap="round" transform="matrix(0.621547, 0, 0, 0.623506, 11.747501, 34.388622)" fill="none" stroke-linejoin="round" d="M 135.18841 74.399818 C 135.18841 88.539872 123.73136 99.998516 109.590733 99.998516 C 95.450107 99.998516 83.999342 88.539872 83.999342 74.399818 C 83.999342 60.259765 95.462676 48.801121 109.597018 48.801121 C 123.737645 48.801121 135.18841 60.259765 135.18841 74.399818 Z M 135.18841 74.399818 " stroke="#000000" stroke-width="10.742" stroke-opacity="1" stroke-miterlimit="10"/><path fill="#000000" d="M 237.71875 298.507812 L 237.71875 263.414062 L 249.082031 263.414062 C 253.386719 263.414062 256.195312 263.59375 257.5 263.941406 C 259.511719 264.464844 261.203125 265.609375 262.5625 267.375 C 263.917969 269.140625 264.597656 271.421875 264.597656 274.207031 C 264.597656 276.363281 264.203125 278.175781 263.421875 279.640625 C 262.632812 281.109375 261.648438 282.261719 260.441406 283.101562 C 259.234375 283.9375 258.011719 284.492188 256.765625 284.761719 C 255.078125 285.097656 252.625 285.265625 249.417969 285.265625 L 244.800781 285.265625 L 244.800781 298.507812 Z M 244.800781 269.351562 L 244.800781 279.304688 L 248.667969 279.304688 C 251.46875 279.304688 253.335938 279.125 254.277344 278.757812 C 255.21875 278.390625 255.953125 277.816406 256.488281 277.035156 C 257.023438 276.246094 257.289062 275.339844 257.289062 274.300781 C 257.289062 273.03125 256.917969 271.972656 256.164062 271.144531 C 255.417969 270.316406 254.464844 269.792969 253.320312 269.589844 C 252.472656 269.425781 250.773438 269.351562 248.222656 269.351562 Z M 270.390625 263.414062 L 283.335938 263.414062 C 286.253906 263.414062 288.476562 263.636719 290.015625 264.082031 C 292.066406 264.6875 293.835938 265.765625 295.300781 267.316406 C 296.769531 268.863281 297.890625 270.757812 298.652344 272.996094 C 299.417969 275.242188 299.800781 278.007812 299.800781 281.296875 C 299.800781 284.179688 299.441406 286.671875 298.722656 288.765625 C 297.847656 291.316406 296.59375 293.382812 294.960938 294.957031 C 293.738281 296.160156 292.078125 297.089844 289.984375 297.761719 C 288.429688 298.261719 286.335938 298.507812 283.710938 298.507812 L 270.390625 298.507812 Z M 277.472656 269.351562 L 277.472656 292.585938 L 282.757812 292.585938 C 284.734375 292.585938 286.164062 292.480469 287.046875 292.253906 C 288.191406 291.96875 289.144531 291.488281 289.902344 290.800781 C 290.667969 290.113281 291.28125 288.976562 291.761719 287.40625 C 292.230469 285.84375 292.480469 283.691406 292.480469 280.980469 C 292.480469 278.265625 292.230469 276.195312 291.761719 274.738281 C 291.28125 273.285156 290.609375 272.148438 289.75 271.335938 C 288.886719 270.523438 287.792969 269.972656 286.464844 269.6875 C 285.476562 269.457031 283.542969 269.351562 280.648438 269.351562 Z M 305.855469 298.507812 L 305.855469 263.414062 L 329.914062 263.414062 L 329.914062 269.351562 L 312.945312 269.351562 L 312.945312 277.652344 L 327.59375 277.652344 L 327.59375 283.597656 L 312.945312 283.597656 L 312.945312 298.507812 L 305.855469 298.507812 " fill-opacity="1" fill-rule="nonzero"/><g clip-path="url(#8dee6c6b73)"><path fill="#000000" d="M 217.230469 244.246094 C 217.230469 245.773438 218.46875 247.011719 219.996094 247.011719 C 221.523438 247.011719 222.761719 245.773438 222.761719 244.246094 L 222.761719 166.464844 L 319.585938 166.464844 L 344.863281 191.746094 L 344.863281 244.246094 C 344.863281 245.773438 346.109375 247.011719 347.628906 247.011719 C 349.15625 247.011719 350.398438 245.773438 350.398438 244.246094 L 350.398438 190.601562 L 350.394531 190.601562 C 350.394531 189.894531 350.125 189.183594 349.589844 188.644531 L 322.699219 161.753906 C 322.199219 161.25 321.503906 160.933594 320.730469 160.933594 L 219.996094 160.933594 C 218.46875 160.933594 217.230469 162.171875 217.230469 163.699219 Z M 350.398438 317.667969 C 350.398438 316.144531 349.15625 314.910156 347.628906 314.910156 C 346.109375 314.910156 344.867188 316.144531 344.867188 317.667969 L 344.867188 340.664062 L 222.761719 340.664062 L 222.761719 317.667969 C 222.761719 316.144531 221.523438 314.910156 219.996094 314.910156 C 218.46875 314.910156 217.230469 316.144531 217.230469 317.667969 L 217.230469 343.429688 C 217.230469 344.957031 218.46875 346.195312 219.996094 346.195312 L 347.628906 346.195312 C 349.15625 346.195312 350.398438 344.957031 350.398438 343.429688 L 350.398438 317.667969 " fill-opacity="1" fill-rule="nonzero"/></g><g clip-path="url(#dfe8998e66)"><path fill="#000000" d="M 323.496094 163.699219 C 323.496094 162.171875 322.261719 160.933594 320.730469 160.933594 C 319.203125 160.933594 317.964844 162.171875 317.964844 163.699219 L 317.964844 177.152344 C 317.964844 181.613281 319.789062 185.667969 322.726562 188.605469 C 325.664062 191.542969 329.722656 193.367188 334.1875 193.367188 L 347.632812 193.367188 C 349.15625 193.367188 350.394531 192.128906 350.394531 190.601562 C 350.394531 189.074219 349.15625 187.835938 347.632812 187.835938 L 334.1875 187.835938 C 331.246094 187.835938 328.578125 186.632812 326.640625 184.695312 C 324.699219 182.757812 323.496094 180.085938 323.496094 177.152344 L 323.496094 163.699219 " fill-opacity="1" fill-rule="nonzero"/></g><g clip-path="url(#6ef664bb2f)"><path fill="#000000" d="M 204.734375 314.910156 L 362.902344 314.910156 L 362.902344 247.011719 L 204.734375 247.011719 Z M 365.660156 320.4375 L 201.96875 320.4375 C 200.441406 320.4375 199.203125 319.199219 199.203125 317.667969 L 199.203125 244.246094 C 199.203125 242.71875 200.441406 241.480469 201.96875 241.480469 L 365.660156 241.480469 C 367.1875 241.480469 368.429688 242.71875 368.429688 244.246094 L 368.429688 317.667969 C 368.429688 319.199219 367.1875 320.4375 365.660156 320.4375 " fill-opacity="1" fill-rule="nonzero"/></g><path fill="#000000" d="M 241.875 192.628906 C 240.347656 192.628906 239.109375 193.867188 239.109375 195.390625 C 239.109375 196.917969 240.347656 198.15625 241.875 198.15625 L 301.445312 198.15625 C 302.972656 198.15625 304.210938 196.917969 304.210938 195.390625 C 304.210938 193.867188 302.972656 192.628906 301.445312 192.628906 L 241.875 192.628906 " fill-opacity="1" fill-rule="nonzero"/><path fill="#000000" d="M 241.875 207.878906 C 240.347656 207.878906 239.109375 209.117188 239.109375 210.644531 C 239.109375 212.167969 240.347656 213.40625 241.875 213.40625 L 325.753906 213.40625 C 327.28125 213.40625 328.519531 212.167969 328.519531 210.644531 C 328.519531 209.117188 327.28125 207.878906 325.753906 207.878906 L 241.875 207.878906 " fill-opacity="1" fill-rule="nonzero"/><path fill="#000000" d="M 241.875 223.128906 C 240.347656 223.128906 239.109375 224.367188 239.109375 225.894531 C 239.109375 227.421875 240.347656 228.660156 241.875 228.660156 L 325.753906 228.660156 C 327.28125 228.660156 328.519531 227.421875 328.519531 225.894531 C 328.519531 224.367188 327.28125 223.128906 325.753906 223.128906 L 241.875 223.128906 " fill-opacity="1" fill-rule="nonzero"/><g clip-path="url(#507df0f197)"><g clip-path="url(#e0033ddbc2)"><g clip-path="url(#567e6add05)"><path fill="#000000" d="M 166.226562 258.597656 C 165.046875 257.664062 164.011719 256.929688 163.078125 256.085938 C 159.980469 253.253906 156.765625 250.535156 153.898438 247.480469 C 150.808594 244.1875 151.324219 239.1875 154.523438 235.828125 C 155.316406 234.988281 155.5 233.578125 156.015625 232.289062 C 157.335938 231.671875 157.996094 232.929688 158.792969 233.683594 C 166.03125 240.523438 174.417969 245.691406 183.257812 250.085938 C 186.636719 251.769531 190.34375 252.820312 193.941406 254.039062 C 196.765625 254.996094 197.164062 255.117188 197.085938 258.144531 C 196.941406 263.550781 195.363281 268.332031 190.921875 271.972656 C 183.203125 278.308594 175.84375 285.089844 167.0625 290 C 165.632812 290.792969 164.101562 291.410156 161.742188 292.523438 C 162.296875 288.066406 162.074219 284.4375 165.457031 281.917969 C 167.53125 280.371094 169.574219 278.800781 172.40625 276.671875 C 169.292969 276.335938 167.140625 276.136719 165.011719 275.867188 C 148.933594 273.839844 134.230469 268.207031 122.640625 256.777344 C 112.085938 246.382812 104.507812 233.914062 103.488281 218.527344 C 102.640625 205.601562 107.109375 194.226562 114.734375 184.085938 C 117.792969 180.027344 121.605469 176.523438 125.183594 172.871094 C 126.109375 171.925781 127.410156 171.359375 128.550781 170.625 C 128.816406 170.871094 129.082031 171.117188 129.347656 171.367188 C 128.449219 173.007812 127.632812 174.707031 126.605469 176.265625 C 125.960938 177.238281 125.015625 178.015625 124.171875 178.847656 C 113.339844 189.515625 110.988281 202.378906 114.859375 216.605469 C 117.816406 227.46875 124.226562 236.230469 132.753906 243.425781 C 141.746094 251.03125 152.117188 255.957031 163.578125 258.628906 C 164.089844 258.753906 164.609375 258.847656 165.125 258.898438 C 165.355469 258.90625 165.601562 258.773438 166.226562 258.597656 Z M 166.226562 258.597656 " fill-opacity="1" fill-rule="nonzero"/></g></g></g><g clip-path="url(#5c32e42b4b)"><path fill="#000000" d="M 134.984375 309.046875 C 133.28125 307.539062 131.773438 306.351562 130.433594 304.996094 C 125.988281 300.476562 121.359375 296.105469 117.277344 291.265625 C 112.878906 286.042969 114.066406 278.535156 119.167969 273.726562 C 120.429688 272.523438 120.828125 270.40625 121.710938 268.503906 C 123.75 267.683594 124.648438 269.628906 125.789062 270.832031 C 136.15625 281.75 148.398438 290.230469 161.382812 297.582031 C 166.347656 300.398438 171.859375 302.285156 177.1875 304.417969 C 181.371094 306.09375 181.964844 306.304688 181.601562 310.871094 C 180.945312 319.019531 178.175781 326.113281 171.171875 331.242188 C 159.007812 340.179688 147.347656 349.816406 133.691406 356.515625 C 131.46875 357.59375 129.109375 358.402344 125.453125 359.894531 C 126.65625 353.210938 126.613281 347.714844 131.925781 344.183594 C 135.183594 342.019531 138.394531 339.8125 142.839844 336.828125 C 138.167969 336.070312 134.9375 335.597656 131.742188 335.019531 C 107.640625 330.648438 85.902344 320.949219 69.339844 302.757812 C 54.25 286.210938 43.824219 266.769531 43.535156 243.460938 C 43.304688 223.882812 50.976562 207.074219 63.308594 192.382812 C 68.257812 186.507812 74.300781 181.527344 79.996094 176.308594 C 81.472656 174.953125 83.480469 174.207031 85.261719 173.1875 C 85.644531 173.582031 86.023438 173.976562 86.40625 174.375 C 84.914062 176.777344 83.542969 179.277344 81.867188 181.542969 C 80.816406 182.960938 79.324219 184.054688 77.984375 185.242188 C 60.765625 200.46875 56.167969 219.695312 60.859375 241.480469 C 64.4375 258.121094 73.402344 271.867188 85.6875 283.421875 C 98.644531 295.632812 113.898438 303.914062 130.980469 308.878906 C 131.742188 309.105469 132.519531 309.289062 133.296875 309.410156 C 133.644531 309.441406 134.027344 309.257812 134.984375 309.046875 Z M 134.984375 309.046875 " fill-opacity="1" fill-rule="nonzero"/></g></svg>